<svg width="22" height="23" viewBox="0 0 22 23" fill="none" xmlns="http://www.w3.org/2000/svg">
<path d="M1.90001 0.299988C1.18204 0.299988 0.600006 0.882018 0.600006 1.59999C0.600006 2.31796 1.18204 2.89999 1.90001 2.89999H3.485L3.88223 4.4889C3.88639 4.50728 3.89095 4.5255 3.89589 4.54357L5.66029 11.6012L4.49994 12.7615C2.86204 14.3994 4.02206 17.2 6.33842 17.2H17.4999C18.2179 17.2 18.7999 16.618 18.7999 15.9C18.7999 15.182 18.2179 14.6 17.4999 14.6L6.33842 14.6L7.63842 13.3H16.2C16.6924 13.3 17.1426 13.0218 17.3628 12.5814L21.2628 4.78137C21.4643 4.37838 21.4427 3.8998 21.2059 3.51654C20.969 3.13328 20.5506 2.89999 20.1 2.89999H6.16502L5.76119 1.28469C5.61651 0.705974 5.09653 0.299988 4.50001 0.299988H1.90001Z" fill="#94A3B8"/>
<path d="M18.8 20.45C18.8 21.5269 17.927 22.4 16.85 22.4C15.7731 22.4 14.9 21.5269 14.9 20.45C14.9 19.373 15.7731 18.5 16.85 18.5C17.927 18.5 18.8 19.373 18.8 20.45Z" fill="#94A3B8"/>
<path d="M6.45001 22.4C7.52696 22.4 8.40001 21.5269 8.40001 20.45C8.40001 19.373 7.52696 18.5 6.45001 18.5C5.37305 18.5 4.50001 19.373 4.50001 20.45C4.50001 21.5269 5.37305 22.4 6.45001 22.4Z" fill="#94A3B8"/>
</svg>
