<svg width="20" height="20" viewBox="0 0 20 20" fill="none" xmlns="http://www.w3.org/2000/svg">
<path d="M0.899994 2.20002C0.899994 1.48205 1.48202 0.900024 2.19999 0.900024H17.8C18.518 0.900024 19.1 1.48205 19.1 2.20002V4.80002C19.1 5.51799 18.518 6.10002 17.8 6.10002H2.19999C1.48202 6.10002 0.899994 5.51799 0.899994 4.80002V2.20002Z" fill="#94A3B8"/>
<path d="M0.899994 10C0.899994 9.28205 1.48202 8.70002 2.19999 8.70002H9.99999C10.718 8.70002 11.3 9.28205 11.3 10V17.8C11.3 18.518 10.718 19.1 9.99999 19.1H2.19999C1.48202 19.1 0.899994 18.518 0.899994 17.8V10Z" fill="#94A3B8"/>
<path d="M15.2 8.70002C14.482 8.70002 13.9 9.28205 13.9 10V17.8C13.9 18.518 14.482 19.1 15.2 19.1H17.8C18.518 19.1 19.1 18.518 19.1 17.8V10C19.1 9.28205 18.518 8.70002 17.8 8.70002H15.2Z" fill="#94A3B8"/>
</svg>
