<svg width="22" height="22" viewBox="0 0 22 22" fill="none" xmlns="http://www.w3.org/2000/svg">
<path d="M11.9188 0.980737C11.4112 0.473055 10.5881 0.473055 10.0804 0.980737L0.980371 10.0807C0.472689 10.5884 0.472689 11.4115 0.980371 11.9192C1.48805 12.4269 2.31117 12.4269 2.81885 11.9192L3.19961 11.5385V20.1C3.19961 20.8179 3.78164 21.4 4.49961 21.4H7.09961C7.81758 21.4 8.39961 20.8179 8.39961 20.1V17.5C8.39961 16.782 8.98164 16.2 9.69961 16.2H12.2996C13.0176 16.2 13.5996 16.782 13.5996 17.5V20.1C13.5996 20.8179 14.1816 21.4 14.8996 21.4H17.4996C18.2176 21.4 18.7996 20.8179 18.7996 20.1V11.5385L19.1804 11.9192C19.6881 12.4269 20.5112 12.4269 21.0188 11.9192C21.5265 11.4115 21.5265 10.5884 21.0188 10.0807L11.9188 0.980737Z" fill="#FF6600"/>
</svg>
