<svg width="19" height="22" viewBox="0 0 19 22" fill="none" xmlns="http://www.w3.org/2000/svg">
<path d="M9.50139 11.4241C12.5337 11.4241 15.0125 8.8549 15.0125 5.71203C15.0125 2.56915 12.5337 0 9.50139 0C6.46906 0 3.99033 2.56915 3.99033 5.71203C3.99033 8.8549 6.46911 11.4241 9.50139 11.4241Z" fill="#94A3B8"/>
<path d="M18.9594 15.9887C18.815 15.6145 18.6225 15.2654 18.4059 14.9411C17.2988 13.2449 15.5902 12.1225 13.6649 11.8481C13.4243 11.8232 13.1595 11.873 12.967 12.0227C11.9562 12.7959 10.7529 13.195 9.50149 13.195C8.25003 13.195 7.04675 12.7959 6.03598 12.0227C5.84343 11.873 5.5787 11.7982 5.33806 11.8481C3.41278 12.1225 1.68005 13.2449 0.597091 14.9411C0.380499 15.2654 0.187953 15.6395 0.043589 15.9887C-0.0285929 16.1384 -0.00454766 16.313 0.0676342 16.4627C0.260181 16.8118 0.500818 17.1611 0.717409 17.4604C1.05432 17.9343 1.41532 18.3583 1.82446 18.7574C2.16137 19.1066 2.54642 19.4309 2.93151 19.7552C4.8327 21.2268 7.11898 22 9.47744 22C11.8359 22 14.1222 21.2268 16.0234 19.7552C16.4084 19.4559 16.7935 19.1066 17.1304 18.7574C17.5155 18.3583 17.9005 17.9343 18.2375 17.4604C18.4781 17.1361 18.6948 16.8118 18.8873 16.4627C19.0075 16.313 19.0316 16.1383 18.9594 15.9887Z" fill="#94A3B8"/>
</svg>
