<svg width="22" height="16" viewBox="0 0 22 16" fill="none" xmlns="http://www.w3.org/2000/svg">
<path d="M0.599998 2.80001C0.599998 1.36407 1.76406 0.200012 3.2 0.200012H11C12.4359 0.200012 13.6 1.36407 13.6 2.80001V13.2C13.6 14.636 12.4359 15.8 11 15.8H3.2C1.76406 15.8 0.599998 14.636 0.599998 13.2V2.80001Z" fill="#94A3B8"/>
<path d="M16.9186 4.23726C16.4782 4.45747 16.2 4.90761 16.2 5.40001V10.6C16.2 11.0924 16.4782 11.5426 16.9186 11.7628L19.5186 13.0628C19.9216 13.2643 20.4002 13.2427 20.7834 13.0059C21.1667 12.769 21.4 12.3506 21.4 11.9V4.10001C21.4 3.64946 21.1667 3.23104 20.7834 2.99417C20.4002 2.7573 19.9216 2.73577 19.5186 2.93726L16.9186 4.23726Z" fill="#94A3B8"/>
</svg>
