<?xml version="1.0" encoding="UTF-8"?>
<svg version="1.1" xmlns="http://www.w3.org/2000/svg" width="512" height="512">
<path d="M0 0 C5.09620539 3.01237564 8.70841667 7.93775001 10.5625 13.5 C10.70834712 15.60075949 10.78335655 17.70688549 10.8125 19.8125 C10.85117187 21.47732422 10.85117187 21.47732422 10.890625 23.17578125 C9.69080024 35.33114876 -3.86608584 45.07402648 -12.00610352 53.18212891 C-13.03226374 54.20800622 -14.05820217 55.23410544 -15.0839386 56.26040649 C-17.83728303 59.01403486 -20.59367367 61.76459471 -23.35067105 64.51456499 C-26.24323789 67.40083044 -29.13292499 70.28997627 -32.02293396 73.17880249 C-37.48176731 78.63454237 -42.94314203 84.08773073 -48.40546125 89.53998029 C-54.63003747 95.75333339 -60.8517344 101.9695663 -67.07320511 108.18602872 C-79.85812872 120.96053291 -92.64661819 133.7314618 -105.4375 146.5 C-104.3851298 146.50146521 -104.3851298 146.50146521 -103.3114996 146.50296003 C-61.73406947 146.56122667 -20.15669215 146.63501938 21.42067337 146.72898628 C26.41244736 146.7402545 31.40422163 146.75139295 36.39599609 146.76245117 C37.88666045 146.7657567 37.88666045 146.7657567 39.40743923 146.769129 C55.50044418 146.80450547 71.59344908 146.82936764 87.6864785 146.85034702 C104.19828946 146.87210627 120.71004994 146.9051579 137.22181797 146.94870156 C147.41120537 146.9752161 157.60052988 146.99291294 167.78995007 146.99934604 C174.7763504 147.00460051 181.76267155 147.02081953 188.74902946 147.04566566 C192.78033959 147.05967858 196.811508 147.06885224 200.84284401 147.06500816 C204.53559462 147.06159373 208.22804275 147.07198677 211.92073143 147.09323552 C213.88520769 147.10098353 215.84972502 147.0940673 217.81420231 147.08658296 C226.60238243 147.15725721 234.04478425 147.98228425 240.5625 154.5 C244.80284841 160.63131459 246.30449672 166.06654192 245.5625 173.5 C243.89669903 180.62228287 240.3707004 184.43683236 234.5 188.75 C230.1786265 191.32443528 226.86306515 191.62552483 221.86972427 191.6386652 C220.70178935 191.64413964 219.53385443 191.64961409 218.33052754 191.65525442 C217.04649313 191.65623253 215.76245871 191.65721064 214.43951416 191.65821838 C213.06250195 191.66278431 211.68549113 191.66778438 210.30848193 191.67318195 C206.52079827 191.68676901 202.73312359 191.69418306 198.94542193 191.70060861 C194.86228046 191.70861005 190.77915769 191.72230871 186.69602966 191.73532104 C179.62047155 191.75708742 172.54491155 191.77523133 165.46933746 191.79092598 C155.23920177 191.81362313 145.00908679 191.84176618 134.77896866 191.87124526 C118.18191924 191.91892306 101.58486135 191.96218674 84.98779297 192.00268555 C68.86376283 192.04203951 52.73974022 192.0834655 36.61572266 192.12768555 C35.12529471 192.13177196 35.12529471 192.13177196 33.6047571 192.13594092 C28.62014382 192.14962038 23.63553065 192.16334066 18.65091753 192.17708123 C-22.71187264 192.29104897 -64.07467904 192.39785767 -105.4375 192.5 C-104.86912289 193.06561173 -104.30074577 193.63122347 -103.71514511 194.21397495 C-89.87711454 207.98571325 -76.04742596 221.76577762 -62.22694016 235.55512333 C-55.54322065 242.22338293 -48.85672125 248.88880948 -42.16357422 255.54760742 C-36.32891327 261.35233928 -30.49956916 267.16234946 -24.676512 272.97872251 C-21.59390728 276.05742096 -18.50872965 279.13343633 -15.41716766 282.20314217 C-12.50506689 285.09482246 -9.60014801 287.99352948 -6.70049095 290.897686 C-5.63729143 291.96006282 -4.57153439 293.01988753 -3.50299263 294.07689095 C10.09840909 307.53863638 10.09840909 307.53863638 10.8125 318.25 C10.71334549 324.90574635 8.28094869 330.78155131 3.5625 335.5 C-2.59481895 339.75833273 -7.98256653 341.19633994 -15.4375 340.5 C-28.38854137 337.36668354 -38.45876129 323.63273596 -47.62036133 314.47827148 C-49.02238469 313.08088624 -50.42460167 311.68369522 -51.82699585 310.28668213 C-55.60805257 306.51864533 -59.38585845 302.74736653 -63.16264176 298.97504687 C-65.52585212 296.61478075 -67.88964269 294.25509719 -70.2536068 291.89558601 C-77.66102718 284.50180554 -85.06646835 277.10605131 -92.46900922 269.70738548 C-100.99542747 261.18545652 -109.52836265 252.67012433 -118.06697828 244.16041702 C-124.68397378 237.56504436 -131.2951871 230.963912 -137.90204829 224.35838753 C-141.84159629 220.41988598 -145.78352118 216.48383672 -149.73148537 212.55377007 C-153.44077662 208.8609725 -157.14282303 205.16106215 -160.83948898 201.45562744 C-162.19415716 200.10018993 -163.55137757 198.7472975 -164.91137123 197.39720345 C-166.77286204 195.5484679 -168.62477636 193.69062139 -170.47468567 191.83030701 C-171.00970587 191.30334321 -171.54472607 190.77637941 -172.09595901 190.23344702 C-178.01005413 184.24170317 -182.11894899 178.27826511 -182.6875 169.75 C-182.32094504 154.46747791 -166.35158865 143.26453181 -156.29223633 133.20947266 C-154.88174513 131.79598371 -153.47145723 130.38229188 -152.06135559 128.96841431 C-148.25823906 125.15652271 -144.45194069 121.34782423 -140.64475465 117.53999758 C-138.26361869 115.15814817 -135.88319728 112.77558702 -133.50302696 110.39277267 C-125.1927717 102.07329015 -116.87996197 93.75637008 -108.56469727 85.44189453 C-100.82165869 77.69945816 -93.08423182 69.95144476 -85.34937841 62.20083201 C-78.69540194 55.53378323 -72.03757907 48.87059221 -65.3767435 42.21039617 C-61.40383432 38.23774179 -57.43248895 34.26355456 -53.46500587 30.2854805 C-49.7388568 26.54965406 -46.00794196 22.81865399 -42.27331352 19.09130478 C-40.90501488 17.72405196 -39.53841861 16.35509299 -38.17366791 14.98429871 C-36.30879647 13.11170519 -34.43784444 11.24540156 -32.56526184 9.38052368 C-32.02858141 8.83869969 -31.49190098 8.2968757 -30.93895751 7.7386328 C-22.50827395 -0.61573066 -11.68068036 -5.13859388 0 0 Z " fill="#000000" transform="translate(224.4375,86.5)"/>
</svg>
