<svg width="19" height="17" viewBox="0 0 19 17" fill="none" xmlns="http://www.w3.org/2000/svg">
<path d="M17.6534 1.31478C16.7557 0.438136 15.5153 0 13.9318 0C13.4936 0 13.0463 0.0759813 12.5905 0.22787C12.1345 0.379869 11.7103 0.584937 11.3184 0.842924C10.9259 1.10084 10.5887 1.34304 10.3057 1.56917C10.0241 1.79448 9.7551 2.03516 9.5 2.29013C9.24486 2.03518 8.97586 1.79449 8.69421 1.56917C8.41138 1.34304 8.07396 1.10099 7.68157 0.842924C7.28926 0.584826 6.86513 0.379906 6.40924 0.22787C5.95339 0.0760185 5.50623 0 5.06802 0C3.48463 0 2.2442 0.438248 1.34653 1.31478C0.448869 2.19124 0 3.40694 0 4.96199C0 5.4356 0.0831857 5.92349 0.249223 6.4251C0.41526 6.92696 0.604471 7.35466 0.816483 7.70801C1.02846 8.06133 1.26884 8.40588 1.53745 8.74167C1.80606 9.07742 2.00236 9.30882 2.12592 9.43605C2.24958 9.56328 2.3468 9.65527 2.41747 9.71186L9.03345 16.0947C9.16072 16.2219 9.31621 16.2857 9.49996 16.2857C9.68371 16.2857 9.83932 16.2219 9.96651 16.0947L16.572 9.73285C18.1907 8.11444 19 6.52403 19 4.96184C19 3.40668 18.5512 2.19109 17.6534 1.31478ZM15.6495 8.73636L9.5 14.6632L3.33998 8.72567C2.01815 7.40416 1.35734 6.14936 1.35734 4.96184C1.35734 4.38939 1.43332 3.88392 1.58521 3.44578C1.73721 3.00757 1.93158 2.65934 2.16836 2.40136C2.40518 2.1433 2.69318 1.93318 3.03245 1.77048C3.37192 1.60794 3.70411 1.49835 4.0292 1.44182C4.35429 1.38538 4.70059 1.35712 5.0682 1.35712C5.43571 1.35712 5.83162 1.44713 6.25572 1.62743C6.67974 1.80766 7.07027 2.03385 7.42719 2.30595C7.78418 2.57824 8.08989 2.83266 8.34446 3.06937C8.59888 3.3063 8.81086 3.52351 8.98053 3.72145C9.10769 3.87701 9.281 3.95478 9.50004 3.95478C9.71914 3.95478 9.89227 3.87701 10.0196 3.72145C10.1892 3.52351 10.4013 3.30619 10.6558 3.06937C10.9102 2.83266 11.216 2.57835 11.5728 2.30595C11.9298 2.03385 12.3203 1.80766 12.7446 1.62743C13.1685 1.44717 13.5646 1.35712 13.9321 1.35712C14.2996 1.35712 14.6458 1.38538 14.9711 1.44182C15.2963 1.49831 15.6285 1.60794 15.9678 1.77048C16.3071 1.93314 16.5951 2.14341 16.8319 2.40136C17.0686 2.65934 17.2631 3.00757 17.4151 3.44578C17.5668 3.88392 17.6428 4.38939 17.6428 4.96184C17.6427 6.14936 16.9784 7.40766 15.6495 8.73636Z" fill="black"/>
</svg>
