<svg width="20" height="20" viewBox="0 0 20 20" fill="none" xmlns="http://www.w3.org/2000/svg">
<path fill-rule="evenodd" clip-rule="evenodd" d="M6.39991 0.399994C7.06266 0.399994 7.59991 0.937252 7.59991 1.59999V2.79999H8.47858C8.4927 2.79974 8.50687 2.79974 8.52108 2.79999H11.1999C11.8627 2.79999 12.3999 3.33725 12.3999 3.99999C12.3999 4.66274 11.8627 5.19999 11.1999 5.19999H9.49351C9.05952 7.22496 8.35681 9.14984 7.42477 10.9356C7.77369 11.3605 8.13947 11.7712 8.5211 12.1666C8.98139 12.6434 8.96799 13.4031 8.49117 13.8634C8.01435 14.3236 7.25467 14.3102 6.79438 13.8334C6.56745 13.5983 6.34552 13.3584 6.12876 13.1137C5.06664 14.6921 3.81254 16.13 2.40021 17.3941C1.90638 17.8361 1.14774 17.7941 0.705752 17.3003C0.26376 16.8064 0.305785 16.0478 0.799617 15.6058C2.25533 14.3029 3.52247 12.7946 4.55562 11.1267C3.88786 10.1799 3.29031 9.17982 2.7706 8.13403C2.47566 7.54054 2.71768 6.82032 3.31118 6.52538C3.90467 6.23044 4.62489 6.47246 4.91983 7.06596C5.20015 7.63002 5.50585 8.17933 5.83543 8.71238C6.3363 7.59126 6.73887 6.41681 7.03228 5.19999H1.59991C0.937172 5.19999 0.399914 4.66274 0.399914 3.99999C0.399914 3.33725 0.937172 2.79999 1.59991 2.79999H5.19991V1.59999C5.19991 0.937252 5.73717 0.399994 6.39991 0.399994ZM13.5999 7.59999C14.0544 7.59999 14.47 7.8568 14.6732 8.26334L18.2624 15.4417C18.2702 15.4565 18.2777 15.4715 18.2849 15.4866L19.4732 17.8633C19.7696 18.4561 19.5293 19.1769 18.9366 19.4733C18.3438 19.7697 17.623 19.5294 17.3266 18.9367L16.4583 17.2H10.7416L9.87323 18.9367C9.57684 19.5294 8.85603 19.7697 8.26326 19.4733C7.67048 19.1769 7.43021 18.4561 7.7266 17.8633L8.91497 15.4866C8.92214 15.4715 8.92962 15.4565 8.9374 15.4417L12.5266 8.26334C12.7299 7.8568 13.1454 7.59999 13.5999 7.59999ZM11.9416 14.8H15.2583L13.5999 11.4833L11.9416 14.8Z" fill="#0B1527"/>
</svg>
