<svg width="16" height="20" viewBox="0 0 16 20" fill="none" xmlns="http://www.w3.org/2000/svg">
<path d="M6.79981 0.399994C6.13706 0.399994 5.59981 0.937252 5.59981 1.59999C5.59981 2.26274 6.13706 2.79999 6.79981 2.79999H9.19981C9.86255 2.79999 10.3998 2.26274 10.3998 1.59999C10.3998 0.937252 9.86255 0.399994 9.19981 0.399994H6.79981Z" fill="#0B1527"/>
<path fill-rule="evenodd" clip-rule="evenodd" d="M0.799805 3.99999C0.799805 2.67451 1.87432 1.59999 3.19981 1.59999C3.19981 3.58822 4.81158 5.19999 6.79981 5.19999H9.19981C11.188 5.19999 12.7998 3.58822 12.7998 1.59999C14.1253 1.59999 15.1998 2.67451 15.1998 3.99999V17.2C15.1998 18.5255 14.1253 19.6 12.7998 19.6H3.19981C1.87432 19.6 0.799805 18.5255 0.799805 17.2V3.99999ZM4.39981 8.79999C3.73706 8.79999 3.19981 9.33725 3.19981 9.99999C3.19981 10.6627 3.73706 11.2 4.39981 11.2H4.41181C5.07455 11.2 5.61181 10.6627 5.61181 9.99999C5.61181 9.33725 5.07455 8.79999 4.41181 8.79999H4.39981ZM7.99981 8.79999C7.33706 8.79999 6.79981 9.33725 6.79981 9.99999C6.79981 10.6627 7.33706 11.2 7.99981 11.2H11.5998C12.2625 11.2 12.7998 10.6627 12.7998 9.99999C12.7998 9.33725 12.2625 8.79999 11.5998 8.79999H7.99981ZM4.39981 13.6C3.73706 13.6 3.19981 14.1373 3.19981 14.8C3.19981 15.4627 3.73706 16 4.39981 16H4.41181C5.07455 16 5.61181 15.4627 5.61181 14.8C5.61181 14.1373 5.07455 13.6 4.41181 13.6H4.39981ZM7.99981 13.6C7.33706 13.6 6.79981 14.1373 6.79981 14.8C6.79981 15.4627 7.33706 16 7.99981 16H11.5998C12.2625 16 12.7998 15.4627 12.7998 14.8C12.7998 14.1373 12.2625 13.6 11.5998 13.6H7.99981Z" fill="#0B1527"/>
</svg>
