<svg width="18" height="20" viewBox="0 0 18 20" fill="none" xmlns="http://www.w3.org/2000/svg">
<path fill-rule="evenodd" clip-rule="evenodd" d="M7.8001 0.400024C7.34557 0.400024 6.93006 0.656827 6.72679 1.06337L5.85846 2.80002H1.8001C1.13736 2.80002 0.600098 3.33728 0.600098 4.00002C0.600098 4.66277 1.13736 5.20002 1.8001 5.20002L1.8001 17.2C1.8001 18.5255 2.87461 19.6 4.2001 19.6H13.8001C15.1256 19.6 16.2001 18.5255 16.2001 17.2V5.20002C16.8628 5.20002 17.4001 4.66277 17.4001 4.00002C17.4001 3.33728 16.8628 2.80002 16.2001 2.80002H12.1417L11.2734 1.06337C11.0701 0.656827 10.6546 0.400024 10.2001 0.400024H7.8001ZM5.4001 7.60002C5.4001 6.93728 5.93736 6.40002 6.6001 6.40002C7.26284 6.40002 7.8001 6.93728 7.8001 7.60002V14.8C7.8001 15.4628 7.26284 16 6.6001 16C5.93736 16 5.4001 15.4628 5.4001 14.8V7.60002ZM11.4001 6.40002C10.7374 6.40002 10.2001 6.93728 10.2001 7.60002V14.8C10.2001 15.4628 10.7374 16 11.4001 16C12.0628 16 12.6001 15.4628 12.6001 14.8V7.60002C12.6001 6.93728 12.0628 6.40002 11.4001 6.40002Z" fill="#0B1527"/>
</svg>
