<svg width="11" height="11" viewBox="0 0 11 11" fill="none" xmlns="http://www.w3.org/2000/svg">
<g clip-path="url(#clip0_1526_860)">
<path d="M4.39701 10.725C4.3829 10.7251 4.3688 10.7243 4.35477 10.7228C4.29225 10.7165 4.23191 10.6964 4.17811 10.6639C4.12432 10.6314 4.0784 10.5874 4.04369 10.535L2.61798 8.37957L0.464733 6.95199C0.412396 6.91725 0.36842 6.87134 0.335976 6.81756C0.303531 6.76377 0.283427 6.70346 0.277113 6.64096C0.2708 6.57847 0.278434 6.51535 0.299465 6.45616C0.320496 6.39698 0.354401 6.34319 0.398733 6.2987L1.16598 5.52947C1.23123 5.46373 1.31631 5.42129 1.40808 5.4087C1.49984 5.39612 1.5932 5.41409 1.67374 5.45984L3.03851 6.22984L4.4728 4.79434L1.03552 2.99122C0.976708 2.96034 0.92597 2.91607 0.887399 2.86199C0.848827 2.80791 0.823501 2.74552 0.813461 2.67986C0.803422 2.61419 0.808949 2.54708 0.829599 2.48395C0.850248 2.42081 0.885442 2.36341 0.932343 2.31637L1.68298 1.56309C1.73345 1.5117 1.79633 1.47423 1.86554 1.45431C1.93475 1.43438 2.00793 1.43267 2.07799 1.44935L6.73869 2.5257L8.64026 0.622036C8.87255 0.399474 9.18173 0.275088 9.50343 0.274781C9.82513 0.274473 10.1346 0.398268 10.3673 0.620386C10.4808 0.734028 10.5709 0.868926 10.6323 1.01738C10.6938 1.16583 10.7254 1.32493 10.7253 1.4856C10.7253 1.64626 10.6936 1.80534 10.632 1.95375C10.5705 2.10217 10.4804 2.23701 10.3667 2.35058L8.46536 4.25424L9.53995 8.91912C9.55623 8.9892 9.5544 9.06227 9.53463 9.13146C9.51487 9.20064 9.47782 9.26365 9.42698 9.31457L8.67513 10.0666C8.62817 10.1137 8.57078 10.149 8.50762 10.1698C8.44446 10.1905 8.3773 10.1961 8.31158 10.186C8.24587 10.1759 8.18345 10.1505 8.12939 10.1119C8.07532 10.0732 8.03113 10.0223 8.00039 9.96335L6.19947 6.52222L4.7654 7.95816L5.53364 9.32392C5.57887 9.40465 5.59655 9.49792 5.584 9.58961C5.57146 9.68129 5.52937 9.76639 5.46412 9.83201L4.69698 10.6007C4.65764 10.6401 4.61088 10.6714 4.5594 10.6928C4.50792 10.7141 4.45274 10.725 4.39701 10.725ZM1.36453 6.53113L3.15753 7.72023C3.20494 7.75153 3.24553 7.79209 3.27688 7.83947L4.46378 9.63368L4.63747 9.45999L3.86934 8.09401C3.82409 8.01326 3.80642 7.91996 3.819 7.82827C3.83159 7.73657 3.87375 7.65148 3.93908 7.58592L6.00774 5.5144C6.05475 5.46739 6.11216 5.4321 6.17533 5.41139C6.2385 5.39068 6.30566 5.38513 6.37137 5.39519C6.43708 5.40525 6.49951 5.43063 6.55359 5.46928C6.60768 5.50793 6.65191 5.55877 6.6827 5.61769L8.48362 9.05926L8.66182 8.88095L7.5869 4.21618C7.57067 4.14608 7.57254 4.07301 7.59232 4.00383C7.6121 3.93466 7.64915 3.87164 7.69998 3.82073L9.76732 1.75031C9.80228 1.71563 9.83003 1.67438 9.84896 1.62892C9.8679 1.58347 9.87765 1.53472 9.87765 1.48548C9.87765 1.43624 9.8679 1.38749 9.84896 1.34204C9.83003 1.29659 9.80228 1.25533 9.76732 1.22066C9.69613 1.15276 9.60148 1.11498 9.5031 1.11518C9.40473 1.11539 9.31023 1.15357 9.23932 1.22176L7.17198 3.29163C7.12137 3.34272 7.0585 3.37996 6.98937 3.3998C6.92025 3.41964 6.84719 3.4214 6.77719 3.40493L2.11671 2.32858L1.93851 2.50799L5.37645 4.31056C5.4353 4.3415 5.48605 4.38584 5.52462 4.44C5.56319 4.49416 5.58849 4.55662 5.59848 4.62235C5.60848 4.68809 5.6029 4.75525 5.58217 4.81842C5.56145 4.8816 5.52618 4.93902 5.47919 4.98607L3.41119 7.05682C3.34592 7.12244 3.26089 7.1648 3.16919 7.17738C3.07749 7.18996 2.98419 7.17207 2.90365 7.12645L1.53965 6.35645L1.36453 6.53113Z" fill="#3098D3"/>
</g>
<defs>
<clipPath id="clip0_1526_860">
<rect width="11" height="11" fill="white"/>
</clipPath>
</defs>
</svg>
