<?xml version="1.0" standalone="no"?>
<!DOCTYPE svg PUBLIC "-//W3C//DTD SVG 20010904//EN"
 "http://www.w3.org/TR/2001/REC-SVG-20010904/DTD/svg10.dtd">
<svg version="1.0" xmlns="http://www.w3.org/2000/svg"
 width="512.000000pt" height="512.000000pt" viewBox="0 0 512.000000 512.000000"
 preserveAspectRatio="xMidYMid meet">

<g transform="translate(0.000000,512.000000) scale(0.100000,-0.100000)"
fill="#000000" stroke="none">
<path d="M2365 4930 c-482 -54 -897 -251 -1230 -585 -255 -255 -432 -560 -524
-905 -103 -386 -90 -787 39 -1172 149 -448 464 -836 877 -1081 157 -94 372
-182 549 -227 l41 -10 218 -375 c120 -206 221 -375 225 -375 4 0 102 163 218
363 116 199 215 367 220 374 4 7 62 28 127 47 640 184 1152 680 1355 1311 233
727 44 1512 -495 2050 -308 308 -694 504 -1123 571 -120 18 -390 26 -497 14z
m515 -368 c598 -125 1076 -545 1264 -1112 67 -203 80 -289 80 -530 0 -185 -3
-230 -23 -320 -148 -690 -656 -1192 -1346 -1327 -141 -28 -474 -25 -615 6
-689 148 -1200 666 -1326 1346 -26 138 -26 460 -1 590 144 734 716 1271 1457
1368 19 3 121 4 225 2 140 -3 215 -9 285 -23z"/>
<path d="M2405 4469 c-192 -20 -360 -70 -540 -159 -153 -76 -274 -163 -400
-288 -419 -414 -566 -1022 -384 -1585 40 -126 136 -313 215 -425 84 -116 241
-273 359 -357 399 -287 926 -368 1390 -214 468 156 842 530 994 996 129 394
98 803 -89 1178 -111 222 -283 425 -481 568 -109 78 -319 185 -434 220 -210
65 -424 88 -630 66z m725 -847 c484 -311 555 -360 558 -383 4 -38 -160 -365
-187 -374 -23 -7 -42 2 -123 57 -31 21 -59 38 -62 38 -3 0 -7 -197 -8 -438
l-3 -438 -28 -42 c-15 -23 -46 -54 -69 -69 l-42 -28 -583 -3 c-410 -2 -596 1
-626 9 -52 14 -122 83 -136 136 -7 24 -11 194 -11 456 0 229 -2 417 -6 417 -3
0 -31 -17 -62 -38 -81 -55 -100 -64 -123 -57 -27 9 -191 336 -187 373 3 23 76
74 558 384 305 197 562 357 570 357 8 1 265 -160 570 -357z"/>
<path d="M2063 3532 c-270 -174 -494 -320 -498 -323 -7 -8 86 -199 97 -199 5
0 204 131 443 290 239 160 444 290 455 290 11 0 216 -130 455 -290 239 -159
438 -290 443 -290 6 0 102 182 102 194 0 5 -995 646 -1001 645 -2 0 -225 -143
-496 -317z"/>
<path d="M2238 3253 l-308 -206 0 -466 c0 -519 -2 -501 68 -521 50 -14 1074
-14 1124 0 70 20 68 2 68 521 l0 466 -310 206 c-170 114 -316 207 -322 206 -7
0 -151 -93 -320 -206z m673 -220 c11 -13 14 -81 14 -345 l0 -330 -24 -19 c-22
-18 -43 -19 -341 -19 -298 0 -319 1 -341 19 l-24 19 0 330 c0 264 3 332 14
345 12 15 49 17 351 17 302 0 339 -2 351 -17z"/>
<path d="M2310 2845 l0 -95 95 0 95 0 0 95 0 95 -95 0 -95 0 0 -95z"/>
<path d="M2620 2845 l0 -95 95 0 95 0 0 95 0 95 -95 0 -95 0 0 -95z"/>
<path d="M2310 2535 l0 -95 95 0 95 0 0 95 0 95 -95 0 -95 0 0 -95z"/>
<path d="M2620 2535 l0 -95 95 0 95 0 0 95 0 95 -95 0 -95 0 0 -95z"/>
</g>
</svg>
