<svg width="12" height="12" viewBox="0 0 12 12" fill="none" xmlns="http://www.w3.org/2000/svg">
<path d="M7.135 9.37499H4.865C4.76554 9.37499 4.67016 9.33548 4.59984 9.26515C4.52951 9.19483 4.49 9.09944 4.49 8.99999C4.49 8.90053 4.52951 8.80515 4.59984 8.73482C4.67016 8.66449 4.76554 8.62499 4.865 8.62499H7.135C7.23446 8.62499 7.32984 8.66449 7.40017 8.73482C7.47049 8.80515 7.51 8.90053 7.51 8.99999C7.51 9.09944 7.47049 9.19483 7.40017 9.26515C7.32984 9.33548 7.23446 9.37499 7.135 9.37499ZM10.09 9.37499H8.865C8.76554 9.37499 8.67016 9.33548 8.59984 9.26515C8.52951 9.19483 8.49 9.09944 8.49 8.99999C8.49 8.90053 8.52951 8.80515 8.59984 8.73482C8.67016 8.66449 8.76554 8.62499 8.865 8.62499H10.09C10.1179 8.6256 10.1452 8.61644 10.1671 8.5991C10.189 8.58176 10.2042 8.55731 10.21 8.52999L10.54 6.87499H7.5C7.44716 6.87506 7.39489 6.86396 7.34664 6.84241C7.29839 6.82087 7.25523 6.78937 7.22 6.74999C7.18524 6.71067 7.15888 6.66467 7.14254 6.6148C7.1262 6.56493 7.12024 6.51225 7.125 6.45999L7.565 2.49999C7.56689 2.48216 7.56521 2.46414 7.56006 2.44697C7.55491 2.4298 7.54639 2.41383 7.535 2.39999C7.50882 2.37621 7.4753 2.36209 7.44 2.35999H1.5C1.40054 2.35999 1.30516 2.32048 1.23483 2.25015C1.16451 2.17983 1.125 2.08444 1.125 1.98499C1.125 1.88553 1.16451 1.79015 1.23483 1.71982C1.30516 1.6495 1.40054 1.60999 1.5 1.60999H7.44C7.56267 1.60977 7.68399 1.63549 7.79601 1.68547C7.90804 1.73545 8.00822 1.80856 8.09 1.89999C8.17256 1.99156 8.23519 2.0993 8.27393 2.21635C8.31266 2.33341 8.32665 2.45724 8.315 2.57999L7.92 6.10999H11C11.0552 6.11006 11.1098 6.12217 11.1599 6.14549C11.21 6.1688 11.2544 6.20276 11.29 6.24499C11.3246 6.28897 11.3497 6.33973 11.3634 6.394C11.3772 6.44826 11.3795 6.50481 11.37 6.55999L10.95 8.65999C10.9118 8.86038 10.8051 9.04125 10.6482 9.17168C10.4913 9.3021 10.294 9.37397 10.09 9.37499ZM3.135 9.37499H1C0.900544 9.37499 0.805161 9.33548 0.734835 9.26515C0.664509 9.19483 0.625 9.09944 0.625 8.99999C0.625 8.90053 0.664509 8.80515 0.734835 8.73482C0.805161 8.66449 0.900544 8.62499 1 8.62499H3.135C3.23446 8.62499 3.32984 8.66449 3.40017 8.73482C3.47049 8.80515 3.51 8.90053 3.51 8.99999C3.51 9.09944 3.47049 9.19483 3.40017 9.26515C3.32984 9.33548 3.23446 9.37499 3.135 9.37499Z" fill="#238800"/>
<path d="M11 6.875H7.5C7.40054 6.875 7.30516 6.83549 7.23484 6.76517C7.16451 6.69484 7.125 6.59946 7.125 6.5C7.125 6.40054 7.16451 6.30516 7.23484 6.23484C7.30516 6.16451 7.40054 6.125 7.5 6.125H10.5L9.76 3.96C9.75155 3.93497 9.73538 3.91326 9.71382 3.89799C9.69226 3.88272 9.66642 3.87467 9.64 3.875H7.835C7.73554 3.875 7.64016 3.83549 7.56984 3.76517C7.49951 3.69484 7.46 3.59946 7.46 3.5C7.46 3.40054 7.49951 3.30516 7.56984 3.23483C7.64016 3.16451 7.73554 3.125 7.835 3.125H9.64C9.82209 3.12662 9.9993 3.18406 10.1477 3.28956C10.2961 3.39507 10.4086 3.54356 10.47 3.715L11.355 6.38C11.3744 6.43656 11.3799 6.49692 11.3712 6.55607C11.3625 6.61521 11.3398 6.67142 11.305 6.72C11.2695 6.7676 11.2236 6.80635 11.1707 6.83324C11.1178 6.86013 11.0593 6.87442 11 6.875ZM4 10.875C3.72805 10.875 3.46221 10.7944 3.23609 10.6433C3.00997 10.4922 2.83374 10.2774 2.72967 10.0262C2.6256 9.77494 2.59837 9.49848 2.65142 9.23175C2.70447 8.96503 2.83543 8.72003 3.02773 8.52773C3.22003 8.33543 3.46503 8.20448 3.73175 8.15142C3.99847 8.09837 4.27494 8.1256 4.52619 8.22967C4.77744 8.33374 4.99218 8.50997 5.14327 8.73609C5.29436 8.96221 5.375 9.22805 5.375 9.5C5.375 9.86467 5.23013 10.2144 4.97227 10.4723C4.71441 10.7301 4.36467 10.875 4 10.875ZM4 8.875C3.87639 8.875 3.75555 8.91166 3.65277 8.98033C3.54999 9.04901 3.46988 9.14662 3.42258 9.26082C3.37527 9.37503 3.36289 9.50069 3.38701 9.62193C3.41112 9.74317 3.47065 9.85454 3.55806 9.94194C3.64547 10.0294 3.75683 10.0889 3.87807 10.113C3.99931 10.1371 4.12497 10.1247 4.23918 10.0774C4.35338 10.0301 4.45099 9.95001 4.51967 9.84723C4.58834 9.74445 4.625 9.62361 4.625 9.5C4.625 9.33424 4.55915 9.17527 4.44194 9.05806C4.32473 8.94085 4.16576 8.875 4 8.875ZM8 10.875C7.72805 10.875 7.46221 10.7944 7.23609 10.6433C7.00997 10.4922 6.83374 10.2774 6.72967 10.0262C6.6256 9.77494 6.59837 9.49848 6.65142 9.23175C6.70447 8.96503 6.83543 8.72003 7.02773 8.52773C7.22003 8.33543 7.46503 8.20448 7.73175 8.15142C7.99848 8.09837 8.27494 8.1256 8.52619 8.22967C8.77744 8.33374 8.99218 8.50997 9.14327 8.73609C9.29436 8.96221 9.375 9.22805 9.375 9.5C9.375 9.86467 9.23013 10.2144 8.97227 10.4723C8.71441 10.7301 8.36467 10.875 8 10.875ZM8 8.875C7.87639 8.875 7.75555 8.91166 7.65277 8.98033C7.54999 9.04901 7.46988 9.14662 7.42258 9.26082C7.37527 9.37503 7.36289 9.50069 7.38701 9.62193C7.41112 9.74317 7.47065 9.85454 7.55806 9.94194C7.64547 10.0294 7.75683 10.0889 7.87807 10.113C7.99931 10.1371 8.12497 10.1247 8.23918 10.0774C8.35338 10.0301 8.45099 9.95001 8.51967 9.84723C8.58834 9.74445 8.625 9.62361 8.625 9.5C8.625 9.33424 8.55915 9.17527 8.44194 9.05806C8.32473 8.94085 8.16576 8.875 8 8.875ZM3 4.125H1.5C1.40054 4.125 1.30516 4.08549 1.23483 4.01516C1.16451 3.94484 1.125 3.84946 1.125 3.75C1.125 3.65054 1.16451 3.55516 1.23483 3.48483C1.30516 3.41451 1.40054 3.375 1.5 3.375H3C3.09946 3.375 3.19484 3.41451 3.26517 3.48483C3.33549 3.55516 3.375 3.65054 3.375 3.75C3.375 3.84946 3.33549 3.94484 3.26517 4.01516C3.19484 4.08549 3.09946 4.125 3 4.125ZM3.5 5.875H1C0.900544 5.875 0.805161 5.83549 0.734835 5.76517C0.664509 5.69484 0.625 5.59946 0.625 5.5C0.625 5.40054 0.664509 5.30516 0.734835 5.23484C0.805161 5.16451 0.900544 5.125 1 5.125H3.5C3.59946 5.125 3.69484 5.16451 3.76517 5.23484C3.83549 5.30516 3.875 5.40054 3.875 5.5C3.875 5.59946 3.83549 5.69484 3.76517 5.76517C3.69484 5.83549 3.59946 5.875 3.5 5.875ZM4 7.625H2C1.90054 7.625 1.80516 7.58549 1.73483 7.51517C1.66451 7.44484 1.625 7.34946 1.625 7.25C1.625 7.15054 1.66451 7.05516 1.73483 6.98484C1.80516 6.91451 1.90054 6.875 2 6.875H4C4.09946 6.875 4.19484 6.91451 4.26516 6.98484C4.33549 7.05516 4.375 7.15054 4.375 7.25C4.375 7.34946 4.33549 7.44484 4.26516 7.51517C4.19484 7.58549 4.09946 7.625 4 7.625Z" fill="#238800"/>
</svg>
