<svg width="22" height="20" viewBox="0 0 22 20" fill="none" xmlns="http://www.w3.org/2000/svg">
<path d="M1.90001 0.900002C1.18204 0.900002 0.600006 1.48203 0.600006 2.2C0.600006 2.91797 1.18204 3.5 1.90001 3.5H16.2C16.918 3.5 17.5 2.91797 17.5 2.2C17.5 1.48203 16.918 0.900002 16.2 0.900002H1.90001Z" fill="#0B1527"/>
<path d="M1.90001 6.1C1.18204 6.1 0.600006 6.68203 0.600006 7.4C0.600006 8.11797 1.18204 8.7 1.90001 8.7H11C11.718 8.7 12.3 8.11797 12.3 7.4C12.3 6.68203 11.718 6.1 11 6.1H1.90001Z" fill="#0B1527"/>
<path d="M1.90001 11.3C1.18204 11.3 0.600006 11.882 0.600006 12.6C0.600006 13.318 1.18204 13.9 1.90001 13.9H7.10001C7.81798 13.9 8.40001 13.318 8.40001 12.6C8.40001 11.882 7.81798 11.3 7.10001 11.3H1.90001Z" fill="#0B1527"/>
<path d="M17.5 7.4C17.5 6.68203 16.918 6.1 16.2 6.1C15.482 6.1 14.9 6.68203 14.9 7.4L14.9 14.6615L13.2192 12.9808C12.7116 12.4731 11.8884 12.4731 11.3808 12.9808C10.8731 13.4884 10.8731 14.3116 11.3808 14.8192L15.2808 18.7192C15.5246 18.963 15.8552 19.1 16.2 19.1C16.5448 19.1 16.8754 18.963 17.1192 18.7192L21.0192 14.8192C21.5269 14.3116 21.5269 13.4884 21.0192 12.9808C20.5116 12.4731 19.6884 12.4731 19.1808 12.9808L17.5 14.6615L17.5 7.4Z" fill="#0B1527"/>
</svg>
