<svg width="125" height="134" viewBox="0 0 125 134" fill="none" xmlns="http://www.w3.org/2000/svg">
<path d="M36.1585 79.2337L16.0996 124.959L0.5 123.352L10.467 44.7729L36.1585 79.2337Z" fill="white"/>
<path d="M124.5 122.459H112.397L101.844 131.866L97.8618 30.8269L106.35 38.3838H113.845L114.799 45.9173L123.272 112.762L124.5 122.459Z" fill="white"/>
<path d="M78.5505 23.3843L73.2463 23.9252C72.7795 19.9822 71.2098 16.2517 68.7182 13.1641C66.2266 10.0766 62.9146 7.75776 59.1644 6.4752C58.6331 6.28596 58.0926 6.12378 57.545 5.98927C57.3906 5.94437 57.2339 5.9077 57.0756 5.87941C55.5296 5.51512 53.9463 5.33358 52.3582 5.33854C49.9735 5.34008 47.6062 5.7456 45.3564 6.53796C41.252 7.98982 37.6981 10.6815 35.1845 14.2421C32.6708 17.8026 31.3211 22.0568 31.3214 26.4182C31.3214 27.0295 31.3449 27.6253 31.3997 28.221L26.0955 28.7699C26.0251 27.9937 25.9938 27.2098 25.9938 26.4182C25.9943 19.4118 28.7721 12.6926 33.7163 7.73834C38.6605 2.78409 45.366 0.00057224 52.3582 1.88583e-05C53.6992 -0.0015972 55.0384 0.100655 56.3637 0.305856H56.3715C56.7705 0.368429 57.1617 0.431215 57.545 0.509493C62.0616 1.41 66.2608 3.48959 69.718 6.53796C71.9379 8.48742 73.8201 10.792 75.2882 13.358C77.0391 16.4455 78.1488 19.856 78.5505 23.3843Z" fill="white"/>
<path d="M90.4206 27.8947V27.9104L89.3958 30.2309L82.2845 46.4423L81.2516 48.8019H81.2438L72.0593 69.7404L69.4462 75.7061L58.9787 99.5608L56.139 106.036L46.4696 128.079L22.4207 125.61L40.3205 84.8152L43.1602 78.3398L38.9982 72.7583L11.5779 35.9926V35.9848L23.61 34.754L27.0757 34.4014V34.3936L32.4423 33.8448L37.2144 33.3589L37.8249 33.296L49.4657 48.9039L49.6615 49.1705L51.977 52.2747L53.6199 54.4854L54.191 53.1917L55.5055 50.1973L55.9592 49.1548L56.2408 48.5197L56.3426 48.2848L56.5927 47.7044L57.6489 45.2978L64.103 30.5916L73.7335 29.6039L79.0926 29.0548L80.4536 28.9141L82.5583 28.7026L84.1307 28.5377L88.1048 28.13L89.4661 27.9889L90.4206 27.8947Z" fill="white"/>
<path d="M88.02 22.3339L86.9327 22.4437L83.8407 22.7587L82.4669 22.8999C81.6714 19.282 80.3765 15.7928 78.6198 12.533C78.0496 11.4819 77.4318 10.4586 76.7666 9.46308C75.4053 7.43267 73.9051 6.00469 72.1057 4.37406C70.4394 2.86116 68.1412 1.45038 66.1697 0.33728C71.2037 1.15332 75.8939 3.41338 79.6731 6.8441C83.4523 10.2748 86.1586 14.7292 87.4646 19.6686C87.6948 20.547 87.8801 21.4366 88.02 22.3339Z" fill="white"/>
<path d="M45.7162 24.5916C45.7162 25.3127 45.7553 26.0338 45.8257 26.7395L41.695 27.1627L41.3743 27.2021L40.5215 27.2882L40.412 27.296C40.3964 26.9747 40.3885 26.661 40.3885 26.3397C40.3885 26.1908 40.3885 26.0417 40.3964 25.8928V25.8849C40.3964 25.7753 40.3964 25.6733 40.4042 25.5636C40.5491 21.8158 41.7482 18.1854 43.8633 15.091C45.9783 11.9966 48.9231 9.56422 52.3581 8.07437C53.1827 7.71472 54.0325 7.41605 54.9007 7.18079C52.0679 9.11127 49.7497 11.7073 48.1487 14.7423C46.5478 17.7772 45.7126 21.1587 45.7162 24.5916Z" fill="white"/>
<path d="M94.5593 133.018L83.0433 131.834L74.7349 130.98L53.049 128.754L60.4653 111.844L63.3054 105.369L73.7729 81.5147L76.3934 75.549L90.9839 42.2796L93.1823 98.0634L93.5736 108.066L94.5593 133.018Z" fill="white"/>
</svg>
