<?xml version="1.0" standalone="no"?>
<!DOCTYPE svg PUBLIC "-//W3C//DTD SVG 20010904//EN"
 "http://www.w3.org/TR/2001/REC-SVG-20010904/DTD/svg10.dtd">
<svg version="1.0" xmlns="http://www.w3.org/2000/svg"
 width="512.000000pt" height="512.000000pt" viewBox="0 0 512.000000 512.000000"
 preserveAspectRatio="xMidYMid meet">

<g transform="translate(0.000000,512.000000) scale(0.100000,-0.100000)"
fill="#000000" stroke="none">
<path d="M1981 4730 c-919 -89 -1682 -738 -1911 -1624 -50 -193 -64 -318 -64
-546 0 -228 14 -353 64 -546 133 -516 456 -969 905 -1269 334 -223 755 -355
1145 -359 129 -1 138 0 191 27 116 57 183 161 183 287 1 66 -4 85 -32 143 -39
79 -104 137 -179 160 -27 8 -97 18 -158 21 -306 17 -557 98 -802 262 -137 91
-304 252 -396 381 -124 174 -225 413 -263 623 -25 131 -25 409 0 540 38 210
140 450 263 623 73 103 235 268 334 340 406 297 913 382 1384 231 456 -146
823 -503 983 -955 31 -87 76 -278 68 -286 -2 -3 -91 68 -198 157 -227 191
-269 214 -378 214 -94 0 -159 -27 -223 -92 -68 -69 -92 -129 -91 -227 0 -90
21 -147 77 -209 18 -19 244 -211 502 -427 319 -266 488 -400 525 -417 82 -38
178 -36 262 6 35 17 75 44 90 59 98 104 811 973 830 1011 34 70 33 186 -3 262
-96 201 -359 250 -512 94 -21 -21 -84 -94 -140 -161 -55 -68 -105 -123 -109
-123 -4 0 -8 9 -8 20 0 45 -73 298 -121 420 -105 265 -263 504 -479 721 -344
347 -756 556 -1232 624 -132 19 -386 26 -507 15z"/>
</g>
</svg>
