<svg width="22" height="22" viewBox="0 0 22 22" fill="none" xmlns="http://www.w3.org/2000/svg">
<path fill-rule="evenodd" clip-rule="evenodd" d="M8.4 3.2C5.52812 3.2 3.2 5.52812 3.2 8.4C3.2 11.2719 5.52812 13.6 8.4 13.6C11.2719 13.6 13.6 11.2719 13.6 8.4C13.6 5.52812 11.2719 3.2 8.4 3.2ZM0.6 8.4C0.6 4.09218 4.09218 0.599998 8.4 0.599998C12.7078 0.599998 16.2 4.09218 16.2 8.4C16.2 10.0846 15.666 11.6444 14.758 12.9195L21.0192 19.1808C21.5269 19.6884 21.5269 20.5116 21.0192 21.0192C20.5116 21.5269 19.6884 21.5269 19.1808 21.0192L12.9195 14.758C11.6444 15.666 10.0846 16.2 8.4 16.2C4.09218 16.2 0.6 12.7078 0.6 8.4Z" fill="#0B1527"/>
</svg>
